<?xml version="1.0" encoding="UTF-8"?>
<svg id="Layer_1" data-name="Layer 1" xmlns="http://www.w3.org/2000/svg" viewBox="0 0 233.5 276.75">
  <defs>
    <style>
      .cls-1 {
        fill: #fff;
      }
    </style>
  </defs>
  <g>
    <path class="cls-1" d="M126.77,254.18c-1.85-2.55-3.27-6.53-4.27-11.93-.2-1.4-.35-2.55-.45-3.45-.1-.9-.15-1.65-.15-2.25,0-2.7,.3-5.52,.9-8.47,.06-.29,.12-.57,.18-.86-2.1,1.49-4.23,2.87-6.4,4.16-1.61,.95-3.22,1.86-4.82,2.72-1.35,.73-2.69,1.42-4.03,2.08-2.95,1.45-5.67,2.67-8.17,3.67-5.1,1.7-10.53,3.08-16.27,4.13-5.76,1.05-11.38,1.57-16.88,1.57-6,0-11.8-.65-17.4-1.95-5.6-1.3-10.7-3.3-15.3-6-4.6-2.7-8.58-6.12-11.92-10.27-3.36-4.15-5.78-9.08-7.28-14.78-1-3-1.5-5.45-1.5-7.35,0-1.4,.2-2.6,.6-3.6,.4-1,.85-1.9,1.35-2.7l1.05-2.1c.5-2.19,.05-3.3-1.35-3.3-2.3,0-4.3,1-6,3-1.7,2.01-3.15,4.4-4.35,7.2s-2.15,5.7-2.85,8.7c-.7,3-1.15,5.45-1.35,7.35-.4,5.5,.28,10.7,2.02,15.6,1.75,4.9,4.28,9.48,7.58,13.73,3.3,4.25,7.3,8.07,12,11.47,4.7,3.4,9.8,6.3,15.3,8.7s11.3,4.25,17.4,5.55c6.1,1.3,12.25,1.95,18.45,1.95,11.2,0,21.65-2,31.35-6,4.67-2.08,9.17-4.55,13.48-7.43,1.5-1,2.98-2.04,4.44-3.14,1.99-1.5,3.9-3.06,5.71-4.71-.37-.38-.72-.81-1.07-1.29ZM159.86,26.1c-1.57-1.77-3.19-3.46-4.86-5.06-3.33-3.21-6.86-6.1-10.59-8.66-5.6-3.85-11.55-6.88-17.85-9.08-6.3-2.19-12.7-3.3-19.2-3.3-2.2,0-4.48,.13-6.82,.38-2.36,.25-4.93,.77-7.73,1.57h.15c-8.4,1.41-16.58,4.33-24.53,8.78-.75,.42-1.49,.84-2.22,1.28-1.11,.65-2.2,1.33-3.28,2.03-1.08,.7-2.15,1.42-3.2,2.16-4.7,3.3-9.17,7.02-13.42,11.18-6.8,6.65-12.93,14.15-18.38,22.5s-9.82,17.12-13.12,26.32c-2.8,7.8-4.93,15.15-6.38,22.05s-2.17,13.11-2.17,18.6c0,3.1,.35,6.38,1.05,9.83s1.45,6.62,2.25,9.52c2.6,7.5,6.55,13.71,11.85,18.6,5.3,4.9,11.42,8.88,18.38,11.93,6.94,3.05,14.44,5.47,22.5,7.27,8.04,1.8,16.12,3.36,24.22,4.65l3.9,.6c4.3,.81,9.02,1.68,14.17,2.63,5.15,.95,9.83,1.93,14.03,2.92,3.98,1.15,7.63,2.61,10.94,4.39,.43,.23,.86,.47,1.28,.71,2.47,1.42,4.44,3.07,5.93,4.95,2.25-3.5,4.64-6.94,7.17-10.32-1.64-2.65-3.56-5.1-5.75-7.32-.27-.27-.54-.54-.82-.81-5.1-4.89-10.65-8.79-16.65-11.7-2.6-1.4-5.43-2.7-8.48-3.9s-6.12-2.34-9.22-3.45l-3.3-1.2c-4-1.45-8.11-3.01-12.3-4.68-.14-.05-.27-.11-.41-.16-.01,0-.01-.01-.02-.01-.58-.23-1.16-.46-1.75-.7-4.94-2-9.65-4.4-14.1-7.2-4.45-2.79-8.47-6.09-12.07-9.9-3.6-3.8-6.45-8.34-8.55-13.65-1.9-4.29-3.28-8.9-4.13-13.8-.85-4.89-1.27-10.29-1.27-16.2,0-1.29,.02-2.57,.07-3.82s.13-2.53,.23-3.83c.2-8.4,1.3-16.7,3.3-24.9,2-8.19,4.97-15.5,8.92-21.9,3.46-5.59,7.72-10.24,12.78-13.93,.72-.53,1.46-1.03,2.22-1.52,.28-.18,.56-.35,.84-.52,.84-.51,1.71-.99,2.6-1.42,5.28-2.59,11.31-3.83,18.09-3.76,5,0,9.92,1.05,14.77,3.15,4.85,2.1,9.45,4.95,13.8,8.55,3.44,2.85,6.68,6.09,9.71,9.72,.81,.96,1.6,1.95,2.37,2.96,3.7,4.85,6.92,10,9.67,15.45,.32,.63,.63,1.26,.93,1.89,.54-.5,1.08-.97,1.61-1.44,4.15-3.65,7.38-6.38,9.68-8.18,3.95-3.13,7.91-6.05,11.89-8.76-2.6-4.03-5.51-7.85-8.73-11.49Z"/>
    <path class="cls-1" d="M231.25,24.45c-1.5-4.5-3.58-8.17-6.23-11.02-2.65-2.85-5.82-4.93-9.52-6.23-3.7-1.29-7.7-1.95-12-1.95-5.6,0-11.6,.93-18,2.78-6.4,1.85-12.88,4.3-19.43,7.35-3.73,1.74-7.42,3.62-11.07,5.66-2.76,1.52-5.49,3.14-8.2,4.84-5.08,3.19-9.87,6.45-14.36,9.79-1.08,.81-2.15,1.62-3.19,2.43-7.5,6-14.55,12.48-21.15,19.43-6.6,6.95-12.33,14.08-17.18,21.37-4.85,7.3-8.7,14.63-11.55,21.98-2.85,7.35-4.27,14.38-4.27,21.07,0,3,.37,6.06,1.12,9.15,.75,3.1,1.88,6,3.38,8.7,.3,.6,.95,1.43,1.95,2.48,1,1.05,2.12,2,3.37,2.85s2.5,1.5,3.75,1.95c.15,.05,.29,.1,.43,.14,1.06,.3,1.94,.23,2.65-.22,1.1-.69,1.47-1.77,1.12-3.22-.35-1.45-.77-2.78-1.27-3.98l-.3-1.05,.15,.15c-.5-1.2-.85-2.34-1.05-3.45-.2-1.1-.3-2.19-.3-3.3,0-4.59,1.32-9.67,3.97-15.22,.66-1.39,1.37-2.78,2.13-4.18,2.28-4.2,5-8.46,8.15-12.77,4.2-5.75,8.87-11.45,14.02-17.1,5.15-5.65,10.18-10.88,15.08-15.68,4.27-4.19,8.26-7.93,11.96-11.23,.54-.5,1.08-.97,1.61-1.44,4.15-3.65,7.38-6.38,9.68-8.18,3.95-3.13,7.91-6.05,11.89-8.76,3.27-2.24,6.56-4.34,9.86-6.31,7.3-4.35,14.35-7.67,21.15-9.98,2.5-.9,4.22-.24,5.17,1.95,.95,2.21,1.43,5.55,1.43,10.05,0,5.31-.6,11.8-1.8,19.5-1.2,7.71-2.73,15.81-4.58,24.3-1.85,8.5-3.9,16.98-6.15,25.43-2.25,8.45-4.37,16.07-6.37,22.87-5.7,5.31-12.1,11.43-19.2,18.38-7.1,6.95-14.08,14.4-20.93,22.35-3.12,3.62-6.12,7.31-8.99,11.08-3.01,3.91-5.88,7.9-8.63,11.98-.43,.63-.86,1.27-1.28,1.91-5.75,8.7-10.12,17.45-13.12,26.25-1,3.5-1.85,7.08-2.55,10.73-.39,2.03-.67,4.04-.84,6.02-.14,1.58-.21,3.15-.21,4.7,0,7.6,1.75,15.2,5.25,22.8,.28,.59,.58,1.16,.89,1.72,2.11,3.81,4.86,6.91,8.26,9.31,3.9,2.75,9,4.12,15.3,4.12,1.6,0,2.75-.02,3.45-.07s1.4-.13,2.1-.23h.45c5.3-.9,10.27-3.77,14.92-8.62,4.65-4.85,9.03-10.95,13.13-18.3,4.1-7.35,7.92-15.6,11.47-24.75,3.55-9.15,6.78-18.43,9.68-27.83,2.9-9.39,5.52-18.57,7.87-27.52,2.35-8.95,4.43-16.93,6.23-23.93l2.55-10.05,.9-3.3,1.5-5.1c.3-1.29,.6-2.62,.9-3.97,.3-1.35-.36-4.53,1.05-4.13,5.6,1.5,3-11.47,4.5-17.62,1.5-6.15,2.95-12.35,4.35-18.6,1.4-6.25,2.72-12.47,3.97-18.68,1.25-6.2,2.33-12.24,3.23-18.15v-4.95c0-6.49-.75-12-2.25-16.5Zm-55.88,142.88c-2.55,8.95-5.25,17.92-8.1,26.92-2.85,9-5.75,17.63-8.7,25.88s-5.77,15.32-8.47,21.22c-2.5,5.4-5.23,9.55-8.18,12.45-2.95,2.9-5.82,4.3-8.62,4.2-2.04,0-3.86-.84-5.46-2.53-.37-.38-.72-.81-1.07-1.29-1.85-2.55-3.27-6.53-4.27-11.93-.2-1.4-.35-2.55-.45-3.45-.1-.9-.15-1.65-.15-2.25,0-2.7,.3-5.52,.9-8.47,.06-.29,.12-.57,.18-.86,.57-2.69,1.26-5.48,2.07-8.37,2.2-7,5.45-13.97,9.75-20.92,.64-1.03,1.29-2.06,1.96-3.08,2.25-3.5,4.64-6.94,7.17-10.32,1.69-2.28,3.45-4.54,5.27-6.78,5.3-6.5,10.85-12.72,16.65-18.67,5.8-5.95,11.3-11.38,16.5-16.28-2.1,7.41-4.43,15.58-6.98,24.53Z"/>
  </g>
  <circle class="cls-1" cx="206.16" cy="243.43" r="4.72"/>
</svg>